<?xml version="1.0" encoding="UTF-8"?>
<svg width="400" height="400" xmlns="http://www.w3.org/2000/svg">
    <rect width="100%" height="100%" fill="#000"/>

    <!-- Stars of varying sizes and opacity -->
    <circle cx="50" cy="80" r="0.5" fill="#fff" opacity="0.4"/>
    <circle cx="120" cy="30" r="0.8" fill="#fff" opacity="0.6"/>
    <circle cx="200" cy="140" r="0.5" fill="#fff" opacity="0.5"/>
    <circle cx="320" cy="200" r="1" fill="#fff" opacity="0.8"/>
    <circle cx="80" cy="250" r="0.6" fill="#fff" opacity="0.3"/>
    <circle cx="250" cy="320" r="0.8" fill="#fff" opacity="0.7"/>
    <circle cx="380" cy="50" r="0.5" fill="#fff" opacity="0.5"/>
    <circle cx="30" cy="380" r="1" fill="#fff" opacity="0.6"/>
    <circle cx="150" cy="180" r="0.5" fill="#fff" opacity="0.4"/>
    <circle cx="350" cy="350" r="0.8" fill="#fff" opacity="0.5"/>
    <circle cx="180" cy="60" r="1.2" fill="#fff" opacity="0.9"/>
    <circle cx="280" cy="100" r="1" fill="#fff" opacity="0.7"/>
    <circle cx="60" cy="160" r="1.5" fill="#fff" opacity="1"/>
    <circle cx="340" cy="280" r="1" fill="#fff" opacity="0.8"/>
    <circle cx="90" cy="20" r="0.3" fill="#fff" opacity="0.3"/>
    <circle cx="160" cy="280" r="0.3" fill="#fff" opacity="0.4"/>
    <circle cx="300" cy="40" r="0.3" fill="#fff" opacity="0.3"/>
    <circle cx="220" cy="240" r="0.3" fill="#fff" opacity="0.5"/>
    <circle cx="370" cy="150" r="0.3" fill="#fff" opacity="0.3"/>
</svg>
